<?xml version="1.0" standalone="no"?>
<!DOCTYPE svg PUBLIC "-//W3C//DTD SVG 20010904//EN"
 "http://www.w3.org/TR/2001/REC-SVG-20010904/DTD/svg10.dtd">
<svg version="1.0" xmlns="http://www.w3.org/2000/svg"
 width="1280.000000pt" height="723.000000pt" viewBox="0 0 1280.000000 723.000000"
 preserveAspectRatio="xMidYMid meet">
<g transform="translate(0.000000,723.000000) scale(0.100000,-0.100000)"
fill="#000000" stroke="none">
<path d="M11999 7226 c-2 -2 -60 -9 -129 -15 -597 -56 -1354 -248 -2290 -582
-410 -146 -1026 -386 -1017 -396 2 -2 103 35 223 83 1295 510 2319 796 3032
846 363 25 632 -31 760 -160 349 -348 -298 -1198 -1758 -2308 -365 -278 -1177
-844 -1210 -844 -26 0 5 25 192 150 444 297 981 689 1323 964 835 674 1324
1212 1466 1612 25 71 36 213 20 270 -134 492 -1449 336 -3441 -409 -314 -117
-562 -215 -575 -228 -6 -6 9 -27 40 -59 l50 -50 175 66 c1200 452 2205 688
2700 635 189 -21 295 -59 378 -134 149 -138 119 -369 -89 -679 -216 -320 -643
-743 -1209 -1194 -344 -275 -1033 -774 -1068 -774 -7 0 -12 10 -12 23 0 17 39
49 187 152 213 148 607 441 793 590 899 720 1379 1302 1347 1632 -47 477
-1144 379 -2895 -258 -134 -49 -248 -91 -253 -95 -6 -3 10 -29 34 -57 24 -29
71 -89 106 -134 35 -48 69 -83 79 -83 9 0 45 9 80 20 223 70 567 154 752 184
208 33 261 38 420 38 178 0 251 -12 340 -57 343 -174 -7 -721 -928 -1454 -74
-58 -136 -106 -139 -106 -3 0 -19 38 -35 85 -17 47 -36 92 -43 100 -7 8 -34
67 -60 130 -355 872 -1056 1584 -1894 1925 -404 164 -791 231 -1236 214 -1346
-52 -2425 -1080 -2635 -2509 -99 -677 13 -1400 318 -2052 62 -133 146 -283
230 -413 36 -55 71 -115 79 -134 8 -18 33 -58 56 -88 33 -44 38 -56 26 -64
-23 -15 -459 -157 -658 -214 -735 -210 -1252 -242 -1424 -86 -103 93 -102 207
3 408 141 270 533 665 1083 1090 81 63 147 120 147 126 0 13 -26 217 -38 300
l-7 48 -165 -113 c-700 -480 -1235 -907 -1649 -1313 -226 -222 -378 -396 -484
-555 -272 -408 -229 -653 129 -742 77 -19 116 -22 294 -22 241 0 434 23 750
89 561 118 1317 358 2043 651 114 46 214 84 223 84 20 0 30 -30 13 -41 -19
-12 -478 -194 -679 -269 -1091 -407 -2007 -627 -2525 -607 -164 6 -276 27
-363 68 -93 42 -136 81 -171 151 -54 107 -40 240 44 413 247 511 1124 1304
2393 2165 l152 103 0 74 c0 53 -4 73 -13 73 -17 0 -608 -397 -892 -600 -712
-507 -1178 -891 -1616 -1329 -332 -333 -502 -548 -609 -774 -153 -320 -84
-536 199 -623 200 -62 569 -59 971 7 772 126 1887 483 3053 976 98 41 181 72
184 69 11 -11 -8 -21 -132 -74 -1748 -739 -3203 -1130 -3912 -1051 -468 52
-607 303 -398 719 248 493 1066 1261 2216 2081 186 133 868 595 924 626 11 6
17 14 15 17 -7 6 -329 -202 -620 -401 -1425 -970 -2393 -1849 -2676 -2428 -41
-84 -94 -258 -94 -307 0 -12 10 -53 23 -92 40 -127 145 -212 312 -255 236 -60
439 -60 860 0 804 115 2006 497 3330 1057 182 77 190 80 211 64 11 -9 65 -54
119 -100 764 -641 1753 -884 2660 -652 200 51 315 94 520 195 280 137 484 283
711 510 217 217 372 428 520 709 179 343 289 711 339 1138 17 147 20 553 5
693 -17 156 -31 132 153 252 669 440 1329 931 1822 1356 698 599 1095 1080
1189 1439 31 119 32 135 5 212 -60 172 -190 247 -500 290 -103 15 -270 22
-280 12z"/>
</g>
</svg>
